<svg id="mermaid-1535565091456" width="100%" xmlns="http://www.w3.org/2000/svg" height="100%" style="max-width:1922.3203125px;" viewBox="-50 -10 1922.3203125 2464"><style>


#mermaid-1535565091456 .label {
  font-family: 'trebuchet ms', verdana, arial;
  color: #333; }

#mermaid-1535565091456 .node rect,
#mermaid-1535565091456 .node circle,
#mermaid-1535565091456 .node ellipse,
#mermaid-1535565091456 .node polygon {
  fill: #eee;
  stroke: #999;
  stroke-width: 1px; }

#mermaid-1535565091456 .node.clickable {
  cursor: pointer; }

#mermaid-1535565091456 .arrowheadPath {
  fill: #333333; }

#mermaid-1535565091456 .edgePath .path {
  stroke: #666;
  stroke-width: 1.5px; }

#mermaid-1535565091456 .edgeLabel {
  background-color: white; }

#mermaid-1535565091456 .cluster rect {
  fill: #eaf2fb !important;
  stroke: #26a !important;
  stroke-width: 1px !important; }

#mermaid-1535565091456 .cluster text {
  fill: #333; }

#mermaid-1535565091456 div.mermaidTooltip {
  position: absolute;
  text-align: center;
  max-width: 200px;
  padding: 2px;
  font-family: 'trebuchet ms', verdana, arial;
  font-size: 12px;
  background: #eaf2fb;
  border: 1px solid #26a;
  border-radius: 2px;
  pointer-events: none;
  z-index: 100; }

#mermaid-1535565091456 .actor {
  stroke: #999;
  fill: #eee; }

#mermaid-1535565091456 text.actor {
  fill: #333;
  stroke: none; }

#mermaid-1535565091456 .actor-line {
  stroke: #666; }

#mermaid-1535565091456 .messageLine0 {
  stroke-width: 1.5;
  stroke-dasharray: '2 2';
  marker-end: 'url(#arrowhead)';
  stroke: #333; }

#mermaid-1535565091456 .messageLine1 {
  stroke-width: 1.5;
  stroke-dasharray: '2 2';
  stroke: #333; }

#mermaid-1535565091456 #arrowhead {
  fill: #333; }

#mermaid-1535565091456 #crosshead path {
  fill: #333 !important;
  stroke: #333 !important; }

#mermaid-1535565091456 .messageText {
  fill: #333;
  stroke: none; }

#mermaid-1535565091456 .labelBox {
  stroke: #999;
  fill: #eee; }

#mermaid-1535565091456 .labelText {
  fill: white;
  stroke: none; }

#mermaid-1535565091456 .loopText {
  fill: white;
  stroke: none; }

#mermaid-1535565091456 .loopLine {
  stroke-width: 2;
  stroke-dasharray: '2 2';
  marker-end: 'url(#arrowhead)';
  stroke: #999; }

#mermaid-1535565091456 .note {
  stroke: #777700;
  fill: #ffa; }

#mermaid-1535565091456 .noteText {
  fill: black;
  stroke: none;
  font-family: 'trebuchet ms', verdana, arial;
  font-size: 14px; }


#mermaid-1535565091456 .section {
  stroke: none;
  opacity: 0.2; }

#mermaid-1535565091456 .section0 {
  fill: #80b3e6; }

#mermaid-1535565091456 .section2 {
  fill: #80b3e6; }

#mermaid-1535565091456 .section1,
#mermaid-1535565091456 .section3 {
  fill: white;
  opacity: 0.2; }

#mermaid-1535565091456 .sectionTitle0 {
  fill: #333; }

#mermaid-1535565091456 .sectionTitle1 {
  fill: #333; }

#mermaid-1535565091456 .sectionTitle2 {
  fill: #333; }

#mermaid-1535565091456 .sectionTitle3 {
  fill: #333; }

#mermaid-1535565091456 .sectionTitle {
  text-anchor: start;
  font-size: 11px;
  text-height: 14px; }


#mermaid-1535565091456 .grid .tick {
  stroke: #e6e6e6;
  opacity: 0.3;
  shape-rendering: crispEdges; }

#mermaid-1535565091456 .grid path {
  stroke-width: 0; }


#mermaid-1535565091456 .today {
  fill: none;
  stroke: #d42;
  stroke-width: 2px; }



#mermaid-1535565091456 .task {
  stroke-width: 2; }

#mermaid-1535565091456 .taskText {
  text-anchor: middle;
  font-size: 11px; }

#mermaid-1535565091456 .taskTextOutsideRight {
  fill: #333;
  text-anchor: start;
  font-size: 11px; }

#mermaid-1535565091456 .taskTextOutsideLeft {
  fill: #333;
  text-anchor: end;
  font-size: 11px; }


#mermaid-1535565091456 .taskText0,
#mermaid-1535565091456 .taskText1,
#mermaid-1535565091456 .taskText2,
#mermaid-1535565091456 .taskText3 {
  fill: white; }

#mermaid-1535565091456 .task0,
#mermaid-1535565091456 .task1,
#mermaid-1535565091456 .task2,
#mermaid-1535565091456 .task3 {
  fill: #26a;
  stroke: #1a4d80; }

#mermaid-1535565091456 .taskTextOutside0,
#mermaid-1535565091456 .taskTextOutside2 {
  fill: #333; }

#mermaid-1535565091456 .taskTextOutside1,
#mermaid-1535565091456 .taskTextOutside3 {
  fill: #333; }


#mermaid-1535565091456 .active0,
#mermaid-1535565091456 .active1,
#mermaid-1535565091456 .active2,
#mermaid-1535565091456 .active3 {
  fill: #eee;
  stroke: #1a4d80; }

#mermaid-1535565091456 .activeText0,
#mermaid-1535565091456 .activeText1,
#mermaid-1535565091456 .activeText2,
#mermaid-1535565091456 .activeText3 {
  fill: #333 !important; }


#mermaid-1535565091456 .done0,
#mermaid-1535565091456 .done1,
#mermaid-1535565091456 .done2,
#mermaid-1535565091456 .done3 {
  stroke: #666;
  fill: #bbb;
  stroke-width: 2; }

#mermaid-1535565091456 .doneText0,
#mermaid-1535565091456 .doneText1,
#mermaid-1535565091456 .doneText2,
#mermaid-1535565091456 .doneText3 {
  fill: #333 !important; }


#mermaid-1535565091456 .crit0,
#mermaid-1535565091456 .crit1,
#mermaid-1535565091456 .crit2,
#mermaid-1535565091456 .crit3 {
  stroke: #b1361b;
  fill: #d42;
  stroke-width: 2; }

#mermaid-1535565091456 .activeCrit0,
#mermaid-1535565091456 .activeCrit1,
#mermaid-1535565091456 .activeCrit2,
#mermaid-1535565091456 .activeCrit3 {
  stroke: #b1361b;
  fill: #eee;
  stroke-width: 2; }

#mermaid-1535565091456 .doneCrit0,
#mermaid-1535565091456 .doneCrit1,
#mermaid-1535565091456 .doneCrit2,
#mermaid-1535565091456 .doneCrit3 {
  stroke: #b1361b;
  fill: #bbb;
  stroke-width: 2;
  cursor: pointer;
  shape-rendering: crispEdges; }

#mermaid-1535565091456 .doneCritText0,
#mermaid-1535565091456 .doneCritText1,
#mermaid-1535565091456 .doneCritText2,
#mermaid-1535565091456 .doneCritText3 {
  fill: #333 !important; }

#mermaid-1535565091456 .activeCritText0,
#mermaid-1535565091456 .activeCritText1,
#mermaid-1535565091456 .activeCritText2,
#mermaid-1535565091456 .activeCritText3 {
  fill: #333 !important; }

#mermaid-1535565091456 .titleText {
  text-anchor: middle;
  font-size: 18px;
  fill: #333; }

#mermaid-1535565091456 g.classGroup text {
  fill: #999;
  stroke: none;
  font-family: 'trebuchet ms', verdana, arial;
  font-size: 10px; }

#mermaid-1535565091456 g.classGroup rect {
  fill: #eee;
  stroke: #999; }

#mermaid-1535565091456 g.classGroup line {
  stroke: #999;
  stroke-width: 1; }

#mermaid-1535565091456 .classLabel .box {
  stroke: none;
  stroke-width: 0;
  fill: #eee;
  opacity: 0.5; }

#mermaid-1535565091456 .classLabel .label {
  fill: #999;
  font-size: 10px; }

#mermaid-1535565091456 .relation {
  stroke: #999;
  stroke-width: 1;
  fill: none; }

#mermaid-1535565091456 #compositionStart {
  fill: #999;
  stroke: #999;
  stroke-width: 1; }

#mermaid-1535565091456 #compositionEnd {
  fill: #999;
  stroke: #999;
  stroke-width: 1; }

#mermaid-1535565091456 #aggregationStart {
  fill: #eee;
  stroke: #999;
  stroke-width: 1; }

#mermaid-1535565091456 #aggregationEnd {
  fill: #eee;
  stroke: #999;
  stroke-width: 1; }

#mermaid-1535565091456 #dependencyStart {
  fill: #999;
  stroke: #999;
  stroke-width: 1; }

#mermaid-1535565091456 #dependencyEnd {
  fill: #999;
  stroke: #999;
  stroke-width: 1; }

#mermaid-1535565091456 #extensionStart {
  fill: #999;
  stroke: #999;
  stroke-width: 1; }

#mermaid-1535565091456 #extensionEnd {
  fill: #999;
  stroke: #999;
  stroke-width: 1; }

#mermaid-1535565091456 .commit-id,
#mermaid-1535565091456 .commit-msg,
#mermaid-1535565091456 .branch-label {
  fill: lightgrey;
  color: lightgrey; }
</style><style>#mermaid-1535565091456 {
    color: rgba(0, 0, 0, 0.65);
    font: normal normal 400 normal 14px / 21px "Monospaced Number", "Chinese Quote", -apple-system, system-ui, "Segoe UI", Roboto, "PingFang SC", "Hiragino Sans GB", "Microsoft YaHei", "Helvetica Neue", Helvetica, Arial, sans-serif;
  }</style><g></g><g><line id="actor1527" x1="75" y1="5" x2="75" y2="2453" class="actor-line" stroke-width="0.5px" stroke="#999"></line><rect x="0" y="0" fill="#eaeaea" stroke="#666" width="150" height="65" rx="3" ry="3" class="actor"></rect><text x="75" y="32.5" dominant-baseline="central" alignment-baseline="central" class="actor" style="text-anchor: middle;"><tspan x="75" dy="0">VideoManager</tspan></text></g><g><line id="actor1528" x1="275" y1="5" x2="275" y2="2453" class="actor-line" stroke-width="0.5px" stroke="#999"></line><rect x="200" y="0" fill="#eaeaea" stroke="#666" width="150" height="65" rx="3" ry="3" class="actor"></rect><text x="275" y="32.5" dominant-baseline="central" alignment-baseline="central" class="actor" style="text-anchor: middle;"><tspan x="275" dy="0">VideoControlInterface</tspan></text></g><g><line id="actor1529" x1="475" y1="5" x2="475" y2="2453" class="actor-line" stroke-width="0.5px" stroke="#999"></line><rect x="400" y="0" fill="#eaeaea" stroke="#666" width="150" height="65" rx="3" ry="3" class="actor"></rect><text x="475" y="32.5" dominant-baseline="central" alignment-baseline="central" class="actor" style="text-anchor: middle;"><tspan x="475" dy="0">uvpjs</tspan></text></g><g><line id="actor1530" x1="675" y1="5" x2="675" y2="2453" class="actor-line" stroke-width="0.5px" stroke="#999"></line><rect x="600" y="0" fill="#eaeaea" stroke="#666" width="150" height="65" rx="3" ry="3" class="actor"></rect><text x="675" y="32.5" dominant-baseline="central" alignment-baseline="central" class="actor" style="text-anchor: middle;"><tspan x="675" dy="0">ResourceConfigObject</tspan></text></g><g><line id="actor1531" x1="875" y1="5" x2="875" y2="2453" class="actor-line" stroke-width="0.5px" stroke="#999"></line><rect x="800" y="0" fill="#eaeaea" stroke="#666" width="150" height="65" rx="3" ry="3" class="actor"></rect><text x="875" y="32.5" dominant-baseline="central" alignment-baseline="central" class="actor" style="text-anchor: middle;"><tspan x="875" dy="0">EventsMgr</tspan></text></g><g><line id="actor1532" x1="1075" y1="5" x2="1075" y2="2453" class="actor-line" stroke-width="0.5px" stroke="#999"></line><rect x="1000" y="0" fill="#eaeaea" stroke="#666" width="150" height="65" rx="3" ry="3" class="actor"></rect><text x="1075" y="32.5" dominant-baseline="central" alignment-baseline="central" class="actor" style="text-anchor: middle;"><tspan x="1075" dy="0">ResourcePlaylistManager</tspan></text></g><g><line id="actor1533" x1="1275" y1="5" x2="1275" y2="2453" class="actor-line" stroke-width="0.5px" stroke="#999"></line><rect x="1200" y="0" fill="#eaeaea" stroke="#666" width="150" height="65" rx="3" ry="3" class="actor"></rect><text x="1275" y="32.5" dominant-baseline="central" alignment-baseline="central" class="actor" style="text-anchor: middle;"><tspan x="1275" dy="0">ResourceProvider</tspan></text></g><g><line id="actor1534" x1="1475" y1="5" x2="1475" y2="2453" class="actor-line" stroke-width="0.5px" stroke="#999"></line><rect x="1400" y="0" fill="#eaeaea" stroke="#666" width="150" height="65" rx="3" ry="3" class="actor"></rect><text x="1475" y="32.5" dominant-baseline="central" alignment-baseline="central" class="actor" style="text-anchor: middle;"><tspan x="1475" dy="0">CoreVideoInstanceManager</tspan></text></g><g><line id="actor1535" x1="1675" y1="5" x2="1675" y2="2453" class="actor-line" stroke-width="0.5px" stroke="#999"></line><rect x="1600" y="0" fill="#eaeaea" stroke="#666" width="150" height="65" rx="3" ry="3" class="actor"></rect><text x="1675" y="32.5" dominant-baseline="central" alignment-baseline="central" class="actor" style="text-anchor: middle;"><tspan x="1675" dy="0">ContentDataProxy</tspan></text></g><defs><marker id="arrowhead" refX="5" refY="2" markerWidth="6" markerHeight="4" orient="auto"><path d="M 0,0 V 4 L6,2 Z"></path></marker></defs><defs><marker id="crosshead" markerWidth="15" markerHeight="8" orient="auto" refX="16" refY="4"><path fill="black" stroke="#000000" stroke-width="1px" d="M 9,2 V 6 L16,4 Z" style="stroke-dasharray: 0, 0;"></path><path fill="none" stroke="#000000" stroke-width="1px" d="M 0,1 L 6,7 M 6,1 L 0,7" style="stroke-dasharray: 0, 0;"></path></marker></defs><g><text x="175" y="93" class="messageText" style="text-anchor: middle;">loadAndPlayResource(rcObj)</text><line x1="75" y1="100" x2="275" y2="100" class="messageLine0" stroke-width="2" stroke="black" marker-end="url(#arrowhead)" style="fill: none;"></line></g><g><rect x="270" y="102" fill="#f4f4f4" stroke="#666" width="10" height="1039" rx="0" ry="0"></rect></g><g><text x="280" y="128" class="messageText" style="text-anchor: middle;">createResourceConfig(rcObj)</text><path d="M 280,135 C 340,125 340,165 280,155" class="messageLine0" stroke-width="2" stroke="black" marker-end="url(#arrowhead)" style="fill: none;"></path></g><g><text x="280" y="193" class="messageText" style="text-anchor: middle;">prevalidateRcObj(rcObj)</text><path d="M 280,200 C 340,190 340,230 280,220" class="messageLine0" stroke-width="2" stroke="black" marker-end="url(#arrowhead)" style="fill: none;"></path></g><g><rect x="200" y="240" fill="#EDF2AE" stroke="#666" width="150" height="84" rx="0" ry="0" class="note"></rect><text x="196" y="264" fill="black" class="noteText"><tspan x="216" fill="black">rco constructor is</tspan></text><text x="196" y="280" fill="black" class="noteText"><tspan x="216" fill="black"> selected based on</tspan></text><text x="196" y="296" fill="black" class="noteText"><tspan x="216" fill="black"> the type. rcoIdIndex </tspan></text><text x="196" y="312" fill="black" class="noteText"><tspan x="216" fill="black">is assigned.</tspan></text></g><g><text x="377.5" y="377" class="messageText" style="text-anchor: middle;">uvpjs.RP_URL()</text><line x1="280" y1="384" x2="475" y2="384" class="messageLine0" stroke-width="2" stroke="black" marker-end="url(#arrowhead)" style="fill: none;"></line></g><g><text x="575" y="412" class="messageText" style="text-anchor: middle;">init(rcObj)</text><line x1="475" y1="419" x2="675" y2="419" class="messageLine0" stroke-width="2" stroke="black" marker-end="url(#arrowhead)" style="fill: none;"></line></g><g><rect x="700" y="429" fill="#EDF2AE" stroke="#666" width="150" height="100" rx="0" ry="0" class="note"></rect><text x="696" y="453" fill="black" class="noteText"><tspan x="716" fill="black">debug: uvpjs.debug</tspan></text><text x="696" y="469" fill="black" class="noteText"><tspan x="716" fill="black">validationInfo: null</tspan></text><text x="696" y="485" fill="black" class="noteText"><tspan x="716" fill="black">id: id</tspan></text><text x="696" y="501" fill="black" class="noteText"><tspan x="716" fill="black">vidContId: vidContId</tspan></text><text x="696" y="517" fill="black" class="noteText"><tspan x="716" fill="black">rcoSeed: {}</tspan></text></g><g><text x="675" y="557" class="messageText" style="text-anchor: middle;">initialize()</text><path d="M 675,564 C 735,554 735,594 675,584" class="messageLine0" stroke-width="2" stroke="black" marker-end="url(#arrowhead)" style="fill: none;"></path></g><g><rect x="700" y="604" fill="#EDF2AE" stroke="#666" width="150" height="36" rx="0" ry="0" class="note"></rect><text x="696" y="628" fill="black" class="noteText"><tspan x="716" fill="black">rcoSeed = rcObj</tspan></text></g><g><text x="675" y="668" class="messageText" style="text-anchor: middle;">validateUserRco()</text><path d="M 675,675 C 735,665 735,705 675,695" class="messageLine0" stroke-width="2" stroke="black" marker-end="url(#arrowhead)" style="fill: none;"></path></g><g><text x="675" y="733" class="messageText" style="text-anchor: middle;">populateSelf(rcObj)</text><path d="M 675,740 C 735,730 735,770 675,760" class="messageLine0" stroke-width="2" stroke="black" marker-end="url(#arrowhead)" style="fill: none;"></path></g><g><rect x="700" y="780" fill="#EDF2AE" stroke="#666" width="150" height="36" rx="0" ry="0" class="note"></rect><text x="696" y="804" fill="black" class="noteText"><tspan x="716" fill="black">_replayRco = rcObj</tspan></text></g><g><line x1="260" y1="334" x2="860" y2="334" class="loopLine"></line><line x1="860" y1="334" x2="860" y2="826" class="loopLine"></line><line x1="260" y1="826" x2="860" y2="826" class="loopLine"></line><line x1="260" y1="334" x2="260" y2="826" class="loopLine"></line><polygon points="260,334 310,334 310,347 301.6,354 260,354" class="labelBox"></polygon><text x="267.5" y="349" fill="black" class="labelText"><tspan x="267.5" fill="black">opt</tspan></text><text x="560" y="349" fill="black" class="loopText" style="text-anchor: middle;"><tspan x="560" fill="black">[ RP_URL ]</tspan></text></g><g><text x="377.5" y="879" class="messageText" style="text-anchor: middle;">uvpjs.RCO_Platform()</text><line x1="280" y1="886" x2="475" y2="886" class="messageLine0" stroke-width="2" stroke="black" marker-end="url(#arrowhead)" style="fill: none;"></line></g><g><line x1="260" y1="836" x2="485" y2="836" class="loopLine"></line><line x1="485" y1="836" x2="485" y2="896" class="loopLine"></line><line x1="260" y1="896" x2="485" y2="896" class="loopLine"></line><line x1="260" y1="836" x2="260" y2="896" class="loopLine"></line><polygon points="260,836 310,836 310,849 301.6,856 260,856" class="labelBox"></polygon><text x="267.5" y="851" fill="black" class="labelText"><tspan x="267.5" fill="black">opt</tspan></text><text x="372.5" y="851" fill="black" class="loopText" style="text-anchor: middle;"><tspan x="372.5" fill="black">[ RP_PLATFORM ]</tspan></text></g><g><text x="377.5" y="949" class="messageText" style="text-anchor: middle;">uvpjs.RCO_IMA</text><line x1="280" y1="956" x2="475" y2="956" class="messageLine0" stroke-width="2" stroke="black" marker-end="url(#arrowhead)" style="fill: none;"></line></g><g><line x1="260" y1="906" x2="485" y2="906" class="loopLine"></line><line x1="485" y1="906" x2="485" y2="966" class="loopLine"></line><line x1="260" y1="966" x2="485" y2="966" class="loopLine"></line><line x1="260" y1="906" x2="260" y2="966" class="loopLine"></line><polygon points="260,906 310,906 310,919 301.6,926 260,926" class="labelBox"></polygon><text x="267.5" y="921" fill="black" class="labelText"><tspan x="267.5" fill="black">opt</tspan></text><text x="372.5" y="921" fill="black" class="loopText" style="text-anchor: middle;"><tspan x="372.5" fill="black">[ RP_IMA ]</tspan></text></g><g><text x="377.5" y="1019" class="messageText" style="text-anchor: middle;">uvpjs.RCO_Mdialog</text><line x1="280" y1="1026" x2="475" y2="1026" class="messageLine0" stroke-width="2" stroke="black" marker-end="url(#arrowhead)" style="fill: none;"></line></g><g><line x1="260" y1="976" x2="485" y2="976" class="loopLine"></line><line x1="485" y1="976" x2="485" y2="1036" class="loopLine"></line><line x1="260" y1="1036" x2="485" y2="1036" class="loopLine"></line><line x1="260" y1="976" x2="260" y2="1036" class="loopLine"></line><polygon points="260,976 310,976 310,989 301.6,996 260,996" class="labelBox"></polygon><text x="267.5" y="991" fill="black" class="labelText"><tspan x="267.5" fill="black">opt</tspan></text><text x="372.5" y="991" fill="black" class="loopText" style="text-anchor: middle;"><tspan x="372.5" fill="black">[ RP_MDIALOG ]</tspan></text></g><g><text x="377.5" y="1089" class="messageText" style="text-anchor: middle;">uvpjs.DaiRco</text><line x1="280" y1="1096" x2="475" y2="1096" class="messageLine0" stroke-width="2" stroke="black" marker-end="url(#arrowhead)" style="fill: none;"></line></g><g><line x1="260" y1="1046" x2="485" y2="1046" class="loopLine"></line><line x1="485" y1="1046" x2="485" y2="1106" class="loopLine"></line><line x1="260" y1="1106" x2="485" y2="1106" class="loopLine"></line><line x1="260" y1="1046" x2="260" y2="1106" class="loopLine"></line><polygon points="260,1046 310,1046 310,1059 301.6,1066 260,1066" class="labelBox"></polygon><text x="267.5" y="1061" fill="black" class="labelText"><tspan x="267.5" fill="black">opt</tspan></text><text x="372.5" y="1061" fill="black" class="loopText" style="text-anchor: middle;"><tspan x="372.5" fill="black">[ RP_DAI ]</tspan></text></g><g><text x="477.5" y="1134" class="messageText" style="text-anchor: middle;">rco</text><line x1="675" y1="1141" x2="280" y2="1141" class="messageLine0" stroke-width="2" stroke="black" marker-end="url(#arrowhead)" style="fill: none;"></line></g><g><text x="575" y="1169" class="messageText" style="text-anchor: middle;">dispatch(RESOURCE_LOAD_REQUEST, rco, vidContId)</text><line x1="275" y1="1176" x2="875" y2="1176" class="messageLine0" stroke-width="2" stroke="black" marker-end="url(#arrowhead)" style="fill: none;"></line></g><g><text x="975" y="1204" class="messageText" style="text-anchor: middle;">onResourceLoadRequest(evtObj)</text><line x1="875" y1="1211" x2="1075" y2="1211" class="messageLine0" stroke-width="2" stroke="black" marker-end="url(#arrowhead)" style="fill: none;"></line></g><g><rect x="1070" y="1213" fill="#f4f4f4" stroke="#666" width="10" height="1155" rx="0" ry="0"></rect></g><g><text x="1080" y="1239" class="messageText" style="text-anchor: middle;">_createResourceProvider(evtObj.payload.rcObj)</text><path d="M 1080,1246 C 1140,1236 1140,1276 1080,1266" class="messageLine0" stroke-width="2" stroke="black" marker-end="url(#arrowhead)" style="fill: none;"></path></g><g><rect x="1100" y="1286" fill="#EDF2AE" stroke="#666" width="150" height="164" rx="0" ry="0" class="note"></rect><text x="1096" y="1310" fill="black" class="noteText"><tspan x="1116" fill="black">opts = {</tspan></text><text x="1096" y="1326" fill="black" class="noteText"><tspan x="1116" fill="black">rco: rcObj,</tspan></text><text x="1096" y="1342" fill="black" class="noteText"><tspan x="1116" fill="black">cviMgr: this.cviMgr,</tspan></text><text x="1096" y="1358" fill="black" class="noteText"><tspan x="1116" fill="black">vidContId: this.vidContId,</tspan></text><text x="1096" y="1374" fill="black" class="noteText"><tspan x="1116" fill="black">containers: this.containers,</tspan></text><text x="1096" y="1390" fill="black" class="noteText"><tspan x="1116" fill="black">p2pClient: this.p2pClient,</tspan></text><text x="1096" y="1406" fill="black" class="noteText"><tspan x="1116" fill="black"> deferLoadingCaptions: this.deferLoadingCaptions,</tspan></text><text x="1096" y="1422" fill="black" class="noteText"><tspan x="1116" fill="black">multiCdnClient: this.multiCdnClient</tspan></text><text x="1096" y="1438" fill="black" class="noteText"><tspan x="1116" fill="black">}</tspan></text></g><g><text x="1177.5" y="1503" class="messageText" style="text-anchor: middle;">new uvpjs.RP_URL(opts)</text><line x1="1080" y1="1510" x2="1275" y2="1510" class="messageLine0" stroke-width="2" stroke="black" marker-end="url(#arrowhead)" style="fill: none;"></line></g><g><text x="1275" y="1538" class="messageText" style="text-anchor: middle;">initialize(rco, cviMgr, vidContId)</text><path d="M 1275,1545 C 1335,1535 1335,1575 1275,1565" class="messageLine0" stroke-width="2" stroke="black" marker-end="url(#arrowhead)" style="fill: none;"></path></g><g><text x="1375" y="1603" class="messageText" style="text-anchor: middle;">getEventsMgr()</text><line x1="1275" y1="1610" x2="1475" y2="1610" class="messageLine0" stroke-width="2" stroke="black" marker-end="url(#arrowhead)" style="fill: none;"></line></g><g><text x="1375" y="1638" class="messageText" style="text-anchor: middle;">getModelRef()</text><line x1="1275" y1="1645" x2="1475" y2="1645" class="messageLine0" stroke-width="2" stroke="black" marker-end="url(#arrowhead)" style="fill: none;"></line></g><g><rect x="1300" y="1655" fill="#EDF2AE" stroke="#666" width="150" height="68" rx="0" ry="0" class="note"></rect><text x="1296" y="1679" fill="black" class="noteText"><tspan x="1316" fill="black">contentVideoState</tspan></text><text x="1296" y="1695" fill="black" class="noteText"><tspan x="1316" fill="black"> from cviModel is</tspan></text><text x="1296" y="1711" fill="black" class="noteText"><tspan x="1316" fill="black">augmented locally</tspan></text></g><g><text x="1475" y="1751" class="messageText" style="text-anchor: middle;">new uvpjs.ContentDataProxy(contentVideoStateDefaults, eventsMgr)</text><line x1="1275" y1="1758" x2="1675" y2="1758" class="messageLine0" stroke-width="2" stroke="black" marker-end="url(#arrowhead)" style="fill: none;"></line></g><g><text x="1675" y="1786" class="messageText" style="text-anchor: middle;">populateDefaults()</text><path d="M 1675,1793 C 1735,1783 1735,1823 1675,1813" class="messageLine0" stroke-width="2" stroke="black" marker-end="url(#arrowhead)" style="fill: none;"></path></g><g><text x="1675" y="1851" class="messageText" style="text-anchor: middle;">loadData(this.opts.url, this.opts.queryParams)</text><path d="M 1675,1858 C 1735,1848 1735,1888 1675,1878" class="messageLine0" stroke-width="2" stroke="black" marker-end="url(#arrowhead)" style="fill: none;"></path></g><g><line x1="1060" y1="1460" x2="1822.3203125" y2="1460" class="loopLine"></line><line x1="1822.3203125" y1="1460" x2="1822.3203125" y2="1898" class="loopLine"></line><line x1="1060" y1="1898" x2="1822.3203125" y2="1898" class="loopLine"></line><line x1="1060" y1="1460" x2="1060" y2="1898" class="loopLine"></line><polygon points="1060,1460 1110,1460 1110,1473 1101.6,1480 1060,1480" class="labelBox"></polygon><text x="1067.5" y="1475" fill="black" class="labelText"><tspan x="1067.5" fill="black">opt</tspan></text><text x="1441.16015625" y="1475" fill="black" class="loopText" style="text-anchor: middle;"><tspan x="1441.16015625" fill="black">[ RP_URL ]</tspan></text></g><g><text x="1177.5" y="1951" class="messageText" style="text-anchor: middle;">new uvpjs.RP_Platform(opts)</text><line x1="1080" y1="1958" x2="1275" y2="1958" class="messageLine0" stroke-width="2" stroke="black" marker-end="url(#arrowhead)" style="fill: none;"></line></g><g><line x1="1060" y1="1908" x2="1285" y2="1908" class="loopLine"></line><line x1="1285" y1="1908" x2="1285" y2="1968" class="loopLine"></line><line x1="1060" y1="1968" x2="1285" y2="1968" class="loopLine"></line><line x1="1060" y1="1908" x2="1060" y2="1968" class="loopLine"></line><polygon points="1060,1908 1110,1908 1110,1921 1101.6,1928 1060,1928" class="labelBox"></polygon><text x="1067.5" y="1923" fill="black" class="labelText"><tspan x="1067.5" fill="black">opt</tspan></text><text x="1172.5" y="1923" fill="black" class="loopText" style="text-anchor: middle;"><tspan x="1172.5" fill="black">[ RP_PLATFORM ]</tspan></text></g><g><text x="1177.5" y="2046" class="messageText" style="text-anchor: middle;">new uvpjs.DaiSsbResourceProvider(opts)</text><line x1="1080" y1="2053" x2="1275" y2="2053" class="messageLine0" stroke-width="2" stroke="black" marker-end="url(#arrowhead)" style="fill: none;"></line></g><g><text x="1177.5" y="2101" class="messageText" style="text-anchor: middle;">new uvpjs.DaiResourceProvider(opts)</text><line x1="1080" y1="2108" x2="1275" y2="2108" class="messageLine0" stroke-width="2" stroke="black" marker-end="url(#arrowhead)" style="fill: none;"></line></g><g><line x1="1060" y1="2003" x2="1285" y2="2003" class="loopLine"></line><line x1="1285" y1="2003" x2="1285" y2="2118" class="loopLine"></line><line x1="1060" y1="2118" x2="1285" y2="2118" class="loopLine"></line><line x1="1060" y1="2003" x2="1060" y2="2118" class="loopLine"></line><line x1="1060" y1="2063" x2="1285" y2="2063" class="loopLine" style="stroke-dasharray: 3, 3;"></line><polygon points="1060,2003 1110,2003 1110,2016 1101.6,2023 1060,2023" class="labelBox"></polygon><text x="1067.5" y="2018" fill="black" class="labelText"><tspan x="1067.5" fill="black">alt</tspan></text><text x="1172.5" y="2018" fill="black" class="loopText" style="text-anchor: middle;"><tspan x="1172.5" fill="black">[ useSsb ]</tspan></text></g><g><line x1="1050" y1="1978" x2="1295" y2="1978" class="loopLine"></line><line x1="1295" y1="1978" x2="1295" y2="2128" class="loopLine"></line><line x1="1050" y1="2128" x2="1295" y2="2128" class="loopLine"></line><line x1="1050" y1="1978" x2="1050" y2="2128" class="loopLine"></line><polygon points="1050,1978 1100,1978 1100,1991 1091.6,1998 1050,1998" class="labelBox"></polygon><text x="1057.5" y="1993" fill="black" class="labelText"><tspan x="1057.5" fill="black">opt</tspan></text><text x="1172.5" y="1993" fill="black" class="loopText" style="text-anchor: middle;"><tspan x="1172.5" fill="black">[ RP_DAI ]</tspan></text></g><g><text x="1177.5" y="2181" class="messageText" style="text-anchor: middle;">new uvpjs.RP_IMA(opts)</text><line x1="1080" y1="2188" x2="1275" y2="2188" class="messageLine0" stroke-width="2" stroke="black" marker-end="url(#arrowhead)" style="fill: none;"></line></g><g><line x1="1060" y1="2138" x2="1285" y2="2138" class="loopLine"></line><line x1="1285" y1="2138" x2="1285" y2="2198" class="loopLine"></line><line x1="1060" y1="2198" x2="1285" y2="2198" class="loopLine"></line><line x1="1060" y1="2138" x2="1060" y2="2198" class="loopLine"></line><polygon points="1060,2138 1110,2138 1110,2151 1101.6,2158 1060,2158" class="labelBox"></polygon><text x="1067.5" y="2153" fill="black" class="labelText"><tspan x="1067.5" fill="black">opt</tspan></text><text x="1172.5" y="2153" fill="black" class="loopText" style="text-anchor: middle;"><tspan x="1172.5" fill="black">[ RP_IMA ]</tspan></text></g><g><text x="1177.5" y="2251" class="messageText" style="text-anchor: middle;">new uvpjs.RP_Mdialog(opts)</text><line x1="1080" y1="2258" x2="1275" y2="2258" class="messageLine0" stroke-width="2" stroke="black" marker-end="url(#arrowhead)" style="fill: none;"></line></g><g><line x1="1060" y1="2208" x2="1285" y2="2208" class="loopLine"></line><line x1="1285" y1="2208" x2="1285" y2="2268" class="loopLine"></line><line x1="1060" y1="2268" x2="1285" y2="2268" class="loopLine"></line><line x1="1060" y1="2208" x2="1060" y2="2268" class="loopLine"></line><polygon points="1060,2208 1110,2208 1110,2221 1101.6,2228 1060,2228" class="labelBox"></polygon><text x="1067.5" y="2223" fill="black" class="labelText"><tspan x="1067.5" fill="black">opt</tspan></text><text x="1172.5" y="2223" fill="black" class="loopText" style="text-anchor: middle;"><tspan x="1172.5" fill="black">[ RP_MDIALOG ]</tspan></text></g><g><text x="1177.5" y="2296" class="messageText" style="text-anchor: middle;">return rp</text><line x1="1275" y1="2303" x2="1080" y2="2303" class="messageLine0" stroke-width="2" stroke="black" marker-end="url(#arrowhead)" style="fill: none;"></line></g><g><text x="1080" y="2331" class="messageText" style="text-anchor: middle;">playlistInterruptionCleanup()</text><path d="M 1080,2338 C 1140,2328 1140,2368 1080,2358" class="messageLine0" stroke-width="2" stroke="black" marker-end="url(#arrowhead)" style="fill: none;"></path></g><g><rect x="0" y="2388" fill="#eaeaea" stroke="#666" width="150" height="65" rx="3" ry="3" class="actor"></rect><text x="75" y="2420.5" dominant-baseline="central" alignment-baseline="central" class="actor" style="text-anchor: middle;"><tspan x="75" dy="0">VideoManager</tspan></text></g><g><rect x="200" y="2388" fill="#eaeaea" stroke="#666" width="150" height="65" rx="3" ry="3" class="actor"></rect><text x="275" y="2420.5" dominant-baseline="central" alignment-baseline="central" class="actor" style="text-anchor: middle;"><tspan x="275" dy="0">VideoControlInterface</tspan></text></g><g><rect x="400" y="2388" fill="#eaeaea" stroke="#666" width="150" height="65" rx="3" ry="3" class="actor"></rect><text x="475" y="2420.5" dominant-baseline="central" alignment-baseline="central" class="actor" style="text-anchor: middle;"><tspan x="475" dy="0">uvpjs</tspan></text></g><g><rect x="600" y="2388" fill="#eaeaea" stroke="#666" width="150" height="65" rx="3" ry="3" class="actor"></rect><text x="675" y="2420.5" dominant-baseline="central" alignment-baseline="central" class="actor" style="text-anchor: middle;"><tspan x="675" dy="0">ResourceConfigObject</tspan></text></g><g><rect x="800" y="2388" fill="#eaeaea" stroke="#666" width="150" height="65" rx="3" ry="3" class="actor"></rect><text x="875" y="2420.5" dominant-baseline="central" alignment-baseline="central" class="actor" style="text-anchor: middle;"><tspan x="875" dy="0">EventsMgr</tspan></text></g><g><rect x="1000" y="2388" fill="#eaeaea" stroke="#666" width="150" height="65" rx="3" ry="3" class="actor"></rect><text x="1075" y="2420.5" dominant-baseline="central" alignment-baseline="central" class="actor" style="text-anchor: middle;"><tspan x="1075" dy="0">ResourcePlaylistManager</tspan></text></g><g><rect x="1200" y="2388" fill="#eaeaea" stroke="#666" width="150" height="65" rx="3" ry="3" class="actor"></rect><text x="1275" y="2420.5" dominant-baseline="central" alignment-baseline="central" class="actor" style="text-anchor: middle;"><tspan x="1275" dy="0">ResourceProvider</tspan></text></g><g><rect x="1400" y="2388" fill="#eaeaea" stroke="#666" width="150" height="65" rx="3" ry="3" class="actor"></rect><text x="1475" y="2420.5" dominant-baseline="central" alignment-baseline="central" class="actor" style="text-anchor: middle;"><tspan x="1475" dy="0">CoreVideoInstanceManager</tspan></text></g><g><rect x="1600" y="2388" fill="#eaeaea" stroke="#666" width="150" height="65" rx="3" ry="3" class="actor"></rect><text x="1675" y="2420.5" dominant-baseline="central" alignment-baseline="central" class="actor" style="text-anchor: middle;"><tspan x="1675" dy="0">ContentDataProxy</tspan></text></g></svg>